<?xml version="1.0" standalone="no"?>
<!DOCTYPE svg PUBLIC "-//W3C//DTD SVG 20010904//EN"
 "http://www.w3.org/TR/2001/REC-SVG-20010904/DTD/svg10.dtd">
<svg version="1.0" xmlns="http://www.w3.org/2000/svg"
 width="180.000000pt" height="180.000000pt" viewBox="0 0 180.000000 180.000000"
 preserveAspectRatio="xMidYMid meet">
<metadata>
Created by potrace 1.11, written by Peter Selinger 2001-2013
</metadata>
<g transform="translate(0.000000,180.000000) scale(0.100000,-0.100000)"
fill="#000000" stroke="none">
<path d="M735 1310 c-272 -31 -488 -112 -601 -225 -129 -128 -97 -265 90 -386
176 -115 552 -188 821 -160 217 23 365 57 490 116 74 34 195 119 195 138 0 6
-10 1 -22 -10 -67 -61 -236 -126 -413 -159 -139 -26 -489 -27 -620 -1 -261 52
-434 140 -491 250 -26 48 -22 107 10 161 123 211 688 317 1173 221 28 -5 28
-5 3 5 -91 40 -465 69 -635 50z"/>
<path d="M292 948 l3 -153 48 -3 47 -3 0 120 0 121 76 0 c87 0 114 -11 114
-45 0 -29 -15 -34 -111 -37 l-66 -3 14 -32 13 -33 104 0 c102 0 105 1 126 28
19 23 21 37 18 90 -6 96 -6 96 -214 100 l-175 3 3 -153z"/>
<path d="M730 961 c0 -179 -9 -171 187 -171 l143 0 0 40 0 40 -115 0 -115 0 0
115 0 115 -50 0 -50 0 0 -139z"/>
<path d="M1110 1095 c0 -3 27 -35 60 -70 33 -35 60 -68 60 -73 0 -4 -29 -40
-65 -79 -36 -39 -65 -74 -65 -77 0 -3 27 -6 59 -6 59 0 60 0 103 50 24 27 46
50 50 50 4 0 28 -22 54 -50 46 -49 48 -50 105 -50 33 0 59 3 59 6 0 3 -31 40
-70 81 l-70 75 66 72 67 71 -56 3 c-54 3 -55 3 -104 -49 l-50 -52 -48 52 c-46
49 -50 51 -101 51 -30 0 -54 -2 -54 -5z"/>
</g>
</svg>
